nColumns=19
nRows=79
DataType=double
version=3
OpenSimVersion=4.1
endheader
time	ground_force_calcn_r_vx	ground_force_calcn_r_vy	ground_force_calcn_r_vz	ground_force_calcn_r_px	ground_force_calcn_r_py	ground_force_calcn_r_pz	ground_force_calcn_r_mx	ground_force_calcn_r_my	ground_force_calcn_r_mz	ground_force_calcn_l_vx	ground_force_calcn_l_vy	ground_force_calcn_l_vz	ground_force_calcn_l_px	ground_force_calcn_l_py	ground_force_calcn_l_pz	ground_force_calcn_l_mx	ground_force_calcn_l_my	ground_force_calcn_l_mz
0.02	3.27463	30.9709	9.34676	0.0310965	0	-0.205848	0.0909837	0.860509	0.259694	0	0	0	0	0	0	0	0	0
0.03	2.8202	49.8905	12.1342	0.0469108	0	-0.206809	0.0509279	0.900935	0.219122	0	0	0	0	0	0	0	0	0
0.04	1.92216	73.1896	15.2486	0.0566157	0	-0.206703	0.0246673	0.939249	0.195686	0	0	0	0	0	0	0	0	0
0.05	0.45796	100.967	18.5919	0.0637084	0	-0.206283	0.00441288	0.97291	0.179151	0	0	0	0	0	0	0	0	0
0.06	-1.70412	133.041	22.0107	0.0694937	0	-0.205738	-0.0127432	0.994866	0.164594	0	0	0	0	0	0	0	0	0
0.07	-4.67271	168.977	25.3029	0.0745915	0	-0.205115	-0.0275346	0.995719	0.149101	0	0	0	0	0	0	0	0	0
0.08	-8.47801	208.182	28.2168	0.0793384	0	-0.204407	-0.0392772	0.964473	0.130724	0	0	0	0	0	0	0	0	0
0.09	-13.0659	249.986	30.4604	0.083925	0	-0.20359	-0.0464936	0.889549	0.10839	0	0	0	0	0	0	0	0	0
0.1	-18.3205	293.675	31.7371	0.0884654	0	-0.202648	-0.0474464	0.760562	0.0821929	0	0	0	0	0	0	0	0	0
0.11	-24.1056	338.519	31.7897	0.0930269	0	-0.201575	-0.0406412	0.570732	0.0535963	0	0	0	0	0	0	0	0	0
0.12	-30.292	383.796	30.4397	0.0976445	0	-0.20038	-0.0252448	0.31985	0.0253679	0	0	0	0	0	0	0	0	0
0.13	-36.7534	428.826	27.6226	0.102335	0	-0.19909	-0.00148528	0.0173298	0.00111629	0	0	0	0	0	0	0	0	0
0.14	-43.3576	472.982	23.4186	0.107094	0	-0.197747	0.0289966	-0.31632	-0.0156619	0	0	0	0	0	0	0	0	0
0.15	-49.9639	515.662	18.0658	0.111906	0	-0.196405	0.0631049	-0.651286	-0.0228173	0	0	0	0	0	0	0	0	0
0.16	-56.4161	556.273	11.9371	0.116744	0	-0.195122	0.0967182	-0.953659	-0.0204647	0	0	0	0	0	0	0	0	0
0.17	-62.5349	594.228	5.48426	0.121581	0	-0.193955	0.1255	-1.19255	-0.0110062	0	0	0	0	0	0	0	0	0
0.18	-68.1264	628.963	-0.836388	0.126386	0	-0.192948	0.145852	-1.34655	0.00179063	0	0	0	0	0	0	0	0	0
0.19	-73.0056	659.949	-6.63112	0.131136	0	-0.19213	0.155636	-1.40691	0.0141365	0	0	0	0	0	0	0	0	0
0.2	-77.0184	686.715	-11.6099	0.135813	0	-0.19151	0.154384	-1.37653	0.0232722	0	0	0	0	0	0	0	0	0
0.21	-80.062	708.889	-15.6058	0.140415	0	-0.191086	0.143105	-1.26709	0.0278942	0	0	0	0	0	0	0	0	0
0.22	-82.0965	726.229	-18.5676	0.14495	0	-0.190842	0.123799	-1.09513	0.0279994	0	0	0	0	0	0	0	0	0
0.23	-83.1361	738.649	-20.5365	0.149436	0	-0.190758	0.098859	-0.878343	0.0244204	0	0	0	0	0	0	0	0	0
0.24	-83.2353	746.217	-21.6162	0.153898	0	-0.190812	0.07065	-0.633388	0.0183478	0	0	0	0	0	0	0	0	0
0.25	-82.4714	749.15	-21.9485	0.158357	0	-0.190979	0.0412993	-0.375152	0.0109912	0	0	0	0	0	0	0	0	0
0.26	-80.9317	747.8	-21.6926	0.162838	0	-0.191239	0.0126293	-0.116693	0.0033851	0	0	0	0	0	0	0	0	0
0.27	-78.7094	742.641	-21.0062	0.167357	0	-0.19157	-0.0138062	0.130265	-0.00368463	0	0	0	0	0	0	0	0	0
0.28	-75.9021	734.248	-20.0333	0.171931	0	-0.191951	-0.0366739	0.35477	-0.00967957	0	0	0	0	0	0	0	0	0
0.29	-72.6103	723.287	-18.894	0.17657	0	-0.192367	-0.054881	0.546681	-0.0142806	0	0	0	0	0	0	0	0	0
0.3	-68.9363	710.486	-17.6694	0.181281	0	-0.192802	-0.0676287	0.69701	-0.0173342	0	0	0	0	0	0	0	0	0
0.31	-64.9823	696.605	-16.3987	0.186064	0	-0.193248	-0.0744046	0.797612	-0.0187765	0	0	0	0	0	0	0	0	0
0.32	-60.8409	682.39	-15.0938	0.19091	0	-0.193697	-0.0749968	0.841162	-0.0186057	0	0	0	0	0	0	0	0	0
0.33	-56.5888	668.535	-13.7519	0.195805	0	-0.194151	-0.0695955	0.822195	-0.0169127	0	0	0	0	0	0	0	0	0
0.34	-52.2884	655.639	-12.3698	0.200724	0	-0.194608	-0.0588707	0.738174	-0.0139269	0	0	0	0	0	0	0	0	0
0.35	-47.9916	644.184	-10.9555	0.205637	0	-0.195066	-0.0439853	0.590408	-0.0100409	0	0	0	0	0	0	0	0	0
0.36	-43.7409	634.519	-9.53161	0.210515	0	-0.195527	-0.0264812	0.384145	-0.00577055	0	0	0	0	0	0	0	0	0
0.37	-39.5693	626.874	-8.13398	0.21533	0	-0.195986	-0.00806922	0.127836	-0.00165873	0	0	0	0	0	0	0	0	0
0.38	-35.4965	621.378	-6.8065	0.220064	0	-0.196439	0.00959733	-0.168005	0.0018403	0	0	0	0	0	0	0	0	0
0.39	-31.527	618.09	-5.59338	0.224702	0	-0.196879	0.0251084	-0.492253	0.00445462	0	0	0	0	0	0	0	0	0
0.4	-27.6518	617.023	-4.53145	0.229243	0	-0.197302	0.0373941	-0.834412	0.00612797	0	0	0	0	0	0	0	0	0
0.41	-23.8503	618.167	-3.64641	0.233693	0	-0.197702	0.0457332	-1.18534	0.00699203	0	0	0	0	0	0	0	0	0
0.42	-20.0911	621.502	-2.95319	0.238063	0	-0.198075	0.0496953	-1.53728	0.00730471	0	0	0	0	0	0	0	0	0
0.43	-16.3321	627.001	-2.45805	0.24237	0	-0.198414	0.0490594	-1.88343	0.00738367	0	0	0	0	0	0	0	0	0
0.44	-12.5214	634.63	-2.15956	0.246627	0	-0.19872	0.0437494	-2.21737	0.0075454	0	0	0	0	0	0	0	0	0
0.45	-8.59969	644.347	-2.04839	0.250846	0	-0.198984	0.0337999	-2.53252	0.00805091	0	0	0	0	0	0	0	0	0
0.46	-4.50256	656.097	-2.10738	0.255027	0	-0.199205	0.0193652	-2.82183	0.00906372	0	0	0	0	0	0	0	0	0
0.47	-0.165118	669.787	-2.31162	0.259167	0	-0.19938	0.000758837	-3.07815	0.0106236	0	0	0	0	0	0	0	0	0
0.48	4.47412	685.263	-2.62839	0.263253	0	-0.199505	-0.0215119	-3.2948	0.0126375	0	0	0	0	0	0	0	0	0
0.49	9.47052	702.275	-3.01696	0.267269	0	-0.199583	-0.0467469	-3.46646	0.0148918	0	0	0	0	0	0	0	0	0
0.5	14.8725	720.447	-3.42953	0.271195	0	-0.199613	-0.0741046	-3.58975	0.0170882	0	0	0	0	0	0	0	0	0
0.51	20.7202	739.258	-3.81565	0.275014	0	-0.199599	-0.102678	-3.66335	0.0189083	0	0	0	0	0	0	0	0	0
0.52	27.0401	758.037	-4.12964	0.278709	0	-0.199544	-0.131544	-3.68767	0.0200897	0	0	0	0	0	0	0	0	0
0.53	33.836	775.978	-4.33571	0.282272	0	-0.199451	-0.159782	-3.66436	0.0204743	0	0	0	0	0	0	0	0	0
0.54	41.0802	792.18	-4.40701	0.285696	0	-0.199324	-0.186489	-3.59621	0.0200062	0	0	0	0	0	0	0	0	0
0.55	48.7047	805.691	-4.32459	0.288983	0	-0.199169	-0.210799	-3.48711	0.0187173	0	0	0	0	0	0	0	0	0
0.56	56.6001	815.555	-4.07765	0.292141	0	-0.198993	-0.231938	-3.34201	0.0167095	0	0	0	0	0	0	0	0	0
0.57	64.6134	820.838	-3.6617	0.295181	0	-0.198801	-0.249281	-3.16682	0.014127	0	0	0	0	0	0	0	0	0
0.58	72.5495	820.668	-3.07411	0.298116	0	-0.198601	-0.262439	-2.96867	0.0111202	4.16306	22.5757	-9.19078	0.751058	0	-0.188019	0.000654008	0.00354659	-0.00144385
0.59	80.174	814.266	-2.31314	0.300963	0	-0.198401	-0.271337	-2.75576	0.00782849	3.35367	43.9219	-11.3275	0.797354	0	-0.212646	0.0124793	0.163437	-0.0421508
0.6	87.2161	800.981	-1.37933	0.303738	0	-0.198207	-0.276226	-2.53682	0.00436854	1.83368	70.8963	-13.6383	0.818668	0	-0.224054	0.00604726	0.233807	-0.0449775
0.61	93.3727	780.331	-0.276994	0.306461	0	-0.198026	-0.277648	-2.32035	0.000823655	-0.58584	103.866	-16.0224	0.831009	0	-0.230209	-0.00155008	0.274819	-0.0423937
0.62	98.3201	752.051	0.98117	0.309151	0	-0.197863	-0.276297	-2.1134	-0.00275726	-4.10674	142.903	-18.3308	0.839429	0	-0.234034	-0.00885975	0.308294	-0.0395462
0.63	101.736	716.153	2.36575	0.31183	0	-0.197724	-0.272795	-1.92029	-0.00634353	-8.93072	187.666	-20.3607	0.84585	0	-0.236662	-0.0163942	0.3445	-0.0373763
0.64	103.33	672.974	3.82298	0.314517	0	-0.197608	-0.267512	-1.74227	-0.00989734	-15.1859	237.413	-21.8843	0.851173	0	-0.238622	-0.0249297	0.389746	-0.035926
0.65	102.881	623.221	5.27288	0.31724	0	-0.197513	-0.260473	-1.57786	-0.0133498	-22.8215	291.189	-22.6863	0.855867	0	-0.240193	-0.0351552	0.448559	-0.0349469
0.66	100.272	567.968	6.61464	0.320025	0	-0.197434	-0.251374	-1.42385	-0.0165824	-31.6129	347.934	-22.5873	0.860183	0	-0.241533	-0.0475802	0.52367	-0.0339958
0.67	95.5162	508.629	7.73787	0.322901	0	-0.197361	-0.239627	-1.27603	-0.0194124	-41.2388	406.434	-21.4597	0.864254	0	-0.242731	-0.0624425	0.61541	-0.0324936
0.68	88.7854	446.876	8.54327	0.325909	0	-0.197281	-0.224645	-1.13069	-0.0216162	-51.3398	465.269	-19.2493	0.868151	0	-0.243833	-0.0794954	0.72043	-0.0298059
0.69	80.4023	384.522	8.96447	0.329099	0	-0.197179	-0.206224	-0.986258	-0.0229929	-61.5339	522.868	-15.9993	0.871913	0	-0.244864	-0.0976975	0.830159	-0.0254022
0.7	70.8185	323.389	8.98228	0.332548	0	-0.19704	-0.184729	-0.843557	-0.0234301	-71.4138	577.626	-11.8673	0.875549	0	-0.24583	-0.115141	0.931313	-0.0191337
0.71	60.5716	265.165	8.62935	0.336368	0	-0.196848	-0.161177	-0.705587	-0.0229622	-80.5606	628.004	-7.11345	0.879058	0	-0.246726	-0.129465	1.00923	-0.0114317
0.72	50.2172	211.263	7.97863	0.340748	0	-0.196582	-0.136937	-0.576091	-0.0217569	-88.5816	672.634	-2.0547	0.882432	0	-0.247545	-0.138677	1.05302	-0.00321667
0.73	40.2559	162.744	7.12444	0.346013	0	-0.196201	-0.113409	-0.458482	-0.0200709	-95.1528	710.422	2.98988	0.885665	0	-0.248282	-0.141889	1.05936	0.00445844
0.74	31.0805	120.28	6.16382	0.35277	0	-0.195633	-0.0919126	-0.355697	-0.0182279	-100.044	740.637	7.72914	0.888762	0	-0.248935	-0.139373	1.03179	0.0107676
0.75	22.9552	84.1659	5.1821	0.362273	0	-0.194733	-0.0738447	-0.270754	-0.0166704	-103.13	762.933	11.9095	0.89173	0	-0.249504	-0.132148	0.977602	0.0152606
0.76	16.011	54.3655	4.24202	0.377533	0	-0.193176	-0.0613956	-0.208469	-0.0162664	-104.39	777.317	15.327	0.894585	0	-0.249989	-0.12164	0.90577	0.0178598
0.77	10.2648	30.5598	3.38182	0.408048	0	-0.190121	-0.0608747	-0.181232	-0.0200556	-103.903	784.103	17.8499	0.897351	0	-0.250394	-0.10952	0.826491	0.0188148
0.78	0	0	0	0	0	0	0	0	0	-101.841	783.878	19.4403	0.90006	0	-0.250726	-0.0975784	0.751066	0.0186265
0.79	0	0	0	0	0	0	0	0	0	-98.4504	777.472	20.1552	0.902753	0	-0.250998	-0.0874791	0.69083	0.0179091
0.8	0	0	0	0	0	0	0	0	0	-94.0267	765.918	20.1172	0.905477	0	-0.251226	-0.0804035	0.654947	0.0172025
